<svg width="38" height="40" viewBox="0 0 38 40" fill="none" xmlns="http://www.w3.org/2000/svg">
<g filter="url(#filter0_d_3_499)">
<path d="M30.7514 40H7.25045C5.91694 40 4.836 38.919 4.836 37.5855V2.41445C4.83592 1.08102 5.91694 0 7.25045 0H30.7515C32.085 0 33.1659 1.08102 33.1659 2.41445V37.5855C33.1659 38.919 32.0849 40 30.7514 40Z" fill="#F3EAE6"/>
<path d="M30.7505 0H30.4266C30.6322 0.355234 30.7505 0.767266 30.7505 1.20727V15.4279C30.7505 28.332 20.2896 38.7928 7.38553 38.7928H5.15881C5.57631 39.5142 6.35592 40 7.24952 40H30.7505C32.084 40 33.165 38.919 33.165 37.5855V2.41445C33.165 1.08102 32.084 0 30.7505 0V0Z" fill="#E1D3CE"/>
<path d="M30.7507 40L27.3594 38.7927L23.5146 40H7.24978C5.91626 40 4.83533 38.919 4.83533 37.5856V34.3948H33.1653V37.5856C33.1653 38.919 32.0842 40 30.7507 40Z" fill="#ACA6D6"/>
<path d="M33.1649 2.41484V37.5852C33.1649 38.9188 32.0844 40 30.7508 40H7.24922C6.35626 40 5.57657 39.5141 5.1586 38.793H7.38594C12.4797 38.793 17.1938 37.1625 21.0328 34.3945C26.9188 30.1523 30.7508 23.2375 30.7508 15.4281V1.20703C30.7508 0.767187 30.632 0.355469 30.4266 0H30.7508C32.0844 0 33.1649 1.08125 33.1649 2.41484Z" fill="#E1D3CE"/>
<path d="M33.1649 34.3945V37.5852C33.1649 38.9187 32.0844 40 30.7508 40L27.3594 38.793L23.5141 40H7.24922C6.35626 40 5.57657 39.5141 5.1586 38.793H7.38594C12.4797 38.793 17.1938 37.1625 21.0328 34.3945H33.1649Z" fill="#978ECB"/>
<path d="M33.165 7.24344H4.83499V2.41445C4.83499 1.08102 5.91601 0 7.24952 0H30.7505C32.0841 0 33.165 1.08102 33.165 2.41445V7.24344Z" fill="#ACA6D6"/>
<path d="M30.7505 0H30.4266C30.6322 0.355234 30.7505 0.767266 30.7505 1.20727V7.24352H33.1649V2.41445C33.165 1.08102 32.084 0 30.7505 0Z" fill="#978ECB"/>
<path d="M7.24952 0C5.91601 0 4.83499 1.08102 4.83499 2.41445V7.24344H14.8837V0L7.24952 0Z" fill="#978ECB"/>
<path d="M30.7505 40H23.5144V37.3727C23.5144 37.0615 23.7666 36.8093 24.0777 36.8093H30.187C30.4982 36.8093 30.7504 37.0616 30.7504 37.3727V40H30.7505Z" fill="#FAF7F7"/>
<path d="M22.1272 4.3461V2.89735C22.1272 2.63063 22.3434 2.41446 22.6101 2.41446H30.2676C30.5343 2.41446 30.7505 2.63063 30.7505 2.89735V4.3461C30.7505 4.61282 30.5343 4.82899 30.2676 4.82899H22.6101C22.3434 4.82899 22.1272 4.61274 22.1272 4.3461Z" fill="#FAF7F7"/>
<path d="M19.3566 4.47692C19.828 4.00552 19.828 3.24124 19.3566 2.76985C18.8852 2.29845 18.1209 2.29845 17.6495 2.76985C17.1781 3.24124 17.1781 4.00552 17.6495 4.47692C18.1209 4.94832 18.8852 4.94831 19.3566 4.47692Z" fill="#FAF7F7"/>
<path d="M12.4692 3.01812H7.24944C6.91608 3.01812 6.64584 2.74788 6.64584 2.41452C6.64584 2.08116 6.91608 1.81093 7.24944 1.81093H12.4692C12.8026 1.81093 13.0728 2.08116 13.0728 2.41452C13.0728 2.74788 12.8026 3.01812 12.4692 3.01812Z" fill="#FAF7F7"/>
<path d="M12.4692 5.43256H7.24944C6.91608 5.43256 6.64584 5.16233 6.64584 4.82897C6.64584 4.49561 6.91608 4.22537 7.24944 4.22537H12.4692C12.8026 4.22537 13.0728 4.49561 13.0728 4.82897C13.0728 5.16233 12.8026 5.43256 12.4692 5.43256Z" fill="#FAF7F7"/>
<path d="M19 29.585C23.8413 29.585 27.7659 25.6604 27.7659 20.8191C27.7659 15.9779 23.8413 12.0533 19 12.0533C14.1588 12.0533 10.2342 15.9779 10.2342 20.8191C10.2342 25.6604 14.1588 29.585 19 29.585Z" fill="#B3DAFE"/>
<path d="M19 27.1705C22.5078 27.1705 25.3514 24.3269 25.3514 20.8191C25.3514 17.3113 22.5078 14.4677 19 14.4677C15.4922 14.4677 12.6486 17.3113 12.6486 20.8191C12.6486 24.3269 15.4922 27.1705 19 27.1705Z" fill="#8AC9FE"/>
<path d="M17.2677 21.3443C17.1132 21.3443 16.9587 21.2854 16.8409 21.1675C16.6051 20.9318 16.6051 20.5496 16.8409 20.3138L19.0984 18.0562C19.3341 17.8205 19.7163 17.8205 19.952 18.0562C20.1877 18.292 20.1877 18.6742 19.952 18.9099L17.6945 21.1675C17.5766 21.2853 17.4221 21.3443 17.2677 21.3443Z" fill="#D8ECFE"/>
<path d="M18.4748 23.7588C18.3204 23.7588 18.1659 23.6998 18.0481 23.582C17.8123 23.3463 17.8123 22.9641 18.0481 22.7283L20.3056 20.4707C20.5413 20.235 20.9234 20.235 21.1591 20.4707C21.3949 20.7064 21.3949 21.0887 21.1591 21.3244L18.9016 23.582C18.7838 23.6998 18.6293 23.7588 18.4748 23.7588Z" fill="#D8ECFE"/>
</g>
<defs>
<filter id="filter0_d_3_499" x="0.834991" y="0" width="36.3309" height="48" filterUnits="userSpaceOnUse" color-interpolation-filters="sRGB">
<feFlood flood-opacity="0" result="BackgroundImageFix"/>
<feColorMatrix in="SourceAlpha" type="matrix" values="0 0 0 0 0 0 0 0 0 0 0 0 0 0 0 0 0 0 127 0" result="hardAlpha"/>
<feOffset dy="4"/>
<feGaussianBlur stdDeviation="2"/>
<feComposite in2="hardAlpha" operator="out"/>
<feColorMatrix type="matrix" values="0 0 0 0 0 0 0 0 0 0 0 0 0 0 0 0 0 0 0.25 0"/>
<feBlend mode="normal" in2="BackgroundImageFix" result="effect1_dropShadow_3_499"/>
<feBlend mode="normal" in="SourceGraphic" in2="effect1_dropShadow_3_499" result="shape"/>
</filter>
</defs>
</svg>
